<mxfile host="app.diagrams.net" modified="2023-05-12T20:27:35.285Z" agent="Mozilla/5.0 (Windows NT 10.0; Win64; x64) AppleWebKit/537.36 (KHTML, like Gecko) Chrome/113.0.0.0 Safari/537.36" etag="gzLlhO07lC3rz9GLGHsN" version="21.3.0" type="device">
  <diagram name="Page-1" id="wLWwsIs3LlqNNr_Zoykg">
    <mxGraphModel dx="1050" dy="1673" grid="1" gridSize="10" guides="1" tooltips="1" connect="1" arrows="1" fold="1" page="1" pageScale="1" pageWidth="850" pageHeight="1100" math="0" shadow="0">
      <root>
        <mxCell id="0" />
        <mxCell id="1" parent="0" />
        <mxCell id="4pM_pSYZhl9twTx9a7B7-6" style="edgeStyle=orthogonalEdgeStyle;rounded=0;orthogonalLoop=1;jettySize=auto;html=1;entryX=0.5;entryY=1;entryDx=0;entryDy=0;" parent="1" source="4pM_pSYZhl9twTx9a7B7-1" target="4pM_pSYZhl9twTx9a7B7-2" edge="1">
          <mxGeometry relative="1" as="geometry" />
        </mxCell>
        <mxCell id="4pM_pSYZhl9twTx9a7B7-1" value="" style="fontColor=#0066CC;verticalAlign=top;verticalLabelPosition=bottom;labelPosition=center;align=center;html=1;outlineConnect=0;fillColor=#CCCCCC;strokeColor=#6881B3;gradientColor=none;gradientDirection=north;strokeWidth=2;shape=mxgraph.networks.pc;" parent="1" vertex="1">
          <mxGeometry x="375" y="-270" width="100" height="70" as="geometry" />
        </mxCell>
        <mxCell id="4pM_pSYZhl9twTx9a7B7-7" style="edgeStyle=orthogonalEdgeStyle;rounded=0;orthogonalLoop=1;jettySize=auto;html=1;entryX=0.5;entryY=1;entryDx=0;entryDy=0;entryPerimeter=0;" parent="1" source="4pM_pSYZhl9twTx9a7B7-2" target="4pM_pSYZhl9twTx9a7B7-3" edge="1">
          <mxGeometry relative="1" as="geometry" />
        </mxCell>
        <mxCell id="4pM_pSYZhl9twTx9a7B7-2" value="&lt;b&gt;&lt;font style=&quot;font-size: 18px;&quot;&gt;API GATEWAY&lt;/font&gt;&lt;/b&gt;" style="rounded=1;whiteSpace=wrap;html=1;" parent="1" vertex="1">
          <mxGeometry x="160" y="-380" width="530" height="60" as="geometry" />
        </mxCell>
        <mxCell id="4pM_pSYZhl9twTx9a7B7-8" style="edgeStyle=orthogonalEdgeStyle;rounded=0;orthogonalLoop=1;jettySize=auto;html=1;entryX=0.519;entryY=0.997;entryDx=0;entryDy=0;entryPerimeter=0;" parent="1" source="4pM_pSYZhl9twTx9a7B7-3" target="4pM_pSYZhl9twTx9a7B7-4" edge="1">
          <mxGeometry relative="1" as="geometry" />
        </mxCell>
        <mxCell id="4pM_pSYZhl9twTx9a7B7-3" value="" style="fontColor=#0066CC;verticalAlign=top;verticalLabelPosition=bottom;labelPosition=center;align=center;html=1;outlineConnect=0;fillColor=#CCCCCC;strokeColor=#6881B3;gradientColor=none;gradientDirection=north;strokeWidth=2;shape=mxgraph.networks.server;" parent="1" vertex="1">
          <mxGeometry x="395" y="-510" width="60" height="70" as="geometry" />
        </mxCell>
        <mxCell id="4pM_pSYZhl9twTx9a7B7-11" style="edgeStyle=orthogonalEdgeStyle;rounded=0;orthogonalLoop=1;jettySize=auto;html=1;" parent="1" source="4pM_pSYZhl9twTx9a7B7-4" target="4pM_pSYZhl9twTx9a7B7-5" edge="1">
          <mxGeometry relative="1" as="geometry">
            <Array as="points">
              <mxPoint x="425" y="-640" />
              <mxPoint x="425" y="-640" />
            </Array>
          </mxGeometry>
        </mxCell>
        <mxCell id="4pM_pSYZhl9twTx9a7B7-4" value="Firebase API" style="rounded=1;whiteSpace=wrap;html=1;fontSize=18;" parent="1" vertex="1">
          <mxGeometry x="150" y="-630" width="530" height="60" as="geometry" />
        </mxCell>
        <mxCell id="4pM_pSYZhl9twTx9a7B7-5" value="" style="aspect=fixed;perimeter=ellipsePerimeter;html=1;align=center;shadow=0;dashed=0;spacingTop=3;image;image=img/lib/active_directory/databases.svg;fontSize=18;" parent="1" vertex="1">
          <mxGeometry x="384" y="-772.5" width="81.63" height="80" as="geometry" />
        </mxCell>
        <mxCell id="MAVo67KAV4XR6O4k-M7F-1" value="" style="shape=curlyBracket;whiteSpace=wrap;html=1;rounded=1;labelPosition=left;verticalLabelPosition=middle;align=right;verticalAlign=middle;fontSize=18;" vertex="1" parent="1">
          <mxGeometry x="320" y="-537.5" width="20" height="140" as="geometry" />
        </mxCell>
        <mxCell id="MAVo67KAV4XR6O4k-M7F-2" value="FAST API" style="rounded=1;whiteSpace=wrap;html=1;fontSize=18;rotation=-90;" vertex="1" parent="1">
          <mxGeometry x="230" y="-497.5" width="120" height="60" as="geometry" />
        </mxCell>
        <mxCell id="MAVo67KAV4XR6O4k-M7F-3" value="" style="shape=curlyBracket;whiteSpace=wrap;html=1;rounded=1;labelPosition=left;verticalLabelPosition=middle;align=right;verticalAlign=middle;fontSize=18;" vertex="1" parent="1">
          <mxGeometry x="320" y="-802.5" width="20" height="140" as="geometry" />
        </mxCell>
        <mxCell id="MAVo67KAV4XR6O4k-M7F-4" value="Firebase" style="rounded=1;whiteSpace=wrap;html=1;fontSize=18;rotation=-90;" vertex="1" parent="1">
          <mxGeometry x="230" y="-762.5" width="120" height="60" as="geometry" />
        </mxCell>
        <mxCell id="MAVo67KAV4XR6O4k-M7F-5" value="" style="shape=curlyBracket;whiteSpace=wrap;html=1;rounded=1;labelPosition=left;verticalLabelPosition=middle;align=right;verticalAlign=middle;fontSize=18;" vertex="1" parent="1">
          <mxGeometry x="320" y="-300" width="20" height="140" as="geometry" />
        </mxCell>
        <mxCell id="MAVo67KAV4XR6O4k-M7F-6" value="Flutter UI" style="rounded=1;whiteSpace=wrap;html=1;fontSize=18;rotation=-90;" vertex="1" parent="1">
          <mxGeometry x="230" y="-260" width="120" height="60" as="geometry" />
        </mxCell>
      </root>
    </mxGraphModel>
  </diagram>
</mxfile>
